<mxfile host="Electron" agent="Mozilla/5.0 (X11; Linux x86_64) AppleWebKit/537.36 (KHTML, like Gecko) draw.io/25.0.2 Chrome/128.0.6613.186 Electron/32.2.5 Safari/537.36" version="25.0.2">
  <diagram name="Page-1" id="RRhtHQciX2oZpTg1eSho">
    <mxGraphModel dx="1195" dy="696" grid="1" gridSize="10" guides="1" tooltips="1" connect="1" arrows="1" fold="1" page="1" pageScale="1" pageWidth="850" pageHeight="1100" math="0" shadow="0">
      <root>
        <mxCell id="0" />
        <mxCell id="1" parent="0" />
        <mxCell id="rOtpziI6RlgoJV6fjV5H-1" value="" style="rounded=0;whiteSpace=wrap;html=1;fillColor=#f5f5f5;fontColor=#333333;strokeColor=#666666;" vertex="1" parent="1">
          <mxGeometry x="200" y="130" width="420" height="430" as="geometry" />
        </mxCell>
        <mxCell id="rOtpziI6RlgoJV6fjV5H-3" value="" style="rounded=0;whiteSpace=wrap;html=1;fillColor=#e1d5e7;strokeColor=#9673a6;" vertex="1" parent="1">
          <mxGeometry x="240" y="200" width="320" height="110" as="geometry" />
        </mxCell>
        <mxCell id="rOtpziI6RlgoJV6fjV5H-4" value="Charging Station Management System" style="text;html=1;align=center;verticalAlign=middle;whiteSpace=wrap;rounded=0;fillColor=none;fontSize=20;fontStyle=1" vertex="1" parent="1">
          <mxGeometry x="220" y="150" width="380" height="20" as="geometry" />
        </mxCell>
        <mxCell id="rOtpziI6RlgoJV6fjV5H-5" value="" style="rounded=0;whiteSpace=wrap;html=1;fillColor=#e1d5e7;strokeColor=#9673a6;" vertex="1" parent="1">
          <mxGeometry x="240" y="330" width="320" height="100" as="geometry" />
        </mxCell>
        <mxCell id="rOtpziI6RlgoJV6fjV5H-6" value="" style="rounded=0;whiteSpace=wrap;html=1;fillColor=#e1d5e7;strokeColor=#9673a6;" vertex="1" parent="1">
          <mxGeometry x="240" y="450" width="320" height="70" as="geometry" />
        </mxCell>
        <mxCell id="rOtpziI6RlgoJV6fjV5H-7" value="&lt;font style=&quot;font-size: 16px;&quot;&gt;User Management&lt;/font&gt;" style="text;html=1;align=center;verticalAlign=middle;whiteSpace=wrap;rounded=0;fontStyle=1" vertex="1" parent="1">
          <mxGeometry x="240" y="200" width="320" height="30" as="geometry" />
        </mxCell>
        <mxCell id="rOtpziI6RlgoJV6fjV5H-8" value="&lt;font style=&quot;font-size: 16px;&quot;&gt;Charging Station Management&lt;/font&gt;" style="text;html=1;align=center;verticalAlign=middle;whiteSpace=wrap;rounded=0;fontStyle=1" vertex="1" parent="1">
          <mxGeometry x="240" y="330" width="320" height="30" as="geometry" />
        </mxCell>
        <mxCell id="rOtpziI6RlgoJV6fjV5H-9" value="&lt;font style=&quot;font-size: 16px;&quot;&gt;Map Management&lt;/font&gt;" style="text;html=1;align=center;verticalAlign=middle;whiteSpace=wrap;rounded=0;fontStyle=1" vertex="1" parent="1">
          <mxGeometry x="240" y="450" width="320" height="30" as="geometry" />
        </mxCell>
        <mxCell id="rOtpziI6RlgoJV6fjV5H-10" value="User registration / authentication&lt;div&gt;User data capture (profile name, password, email address)&lt;/div&gt;&lt;div&gt;User data update&lt;/div&gt;&lt;div&gt;Profile delete&lt;/div&gt;" style="text;html=1;align=left;verticalAlign=middle;whiteSpace=wrap;rounded=0;" vertex="1" parent="1">
          <mxGeometry x="240" y="230" width="320" height="80" as="geometry" />
        </mxCell>
        <mxCell id="rOtpziI6RlgoJV6fjV5H-11" value="Creation of Charging Stations (id, location)&lt;div&gt;Charging Station updates (ratings, availability)&lt;/div&gt;&lt;div&gt;Deletion of Charging Stations&lt;/div&gt;" style="text;html=1;align=left;verticalAlign=middle;whiteSpace=wrap;rounded=0;" vertex="1" parent="1">
          <mxGeometry x="240" y="360" width="320" height="60" as="geometry" />
        </mxCell>
        <mxCell id="rOtpziI6RlgoJV6fjV5H-12" value="Map updates (Charging Station)" style="text;html=1;align=left;verticalAlign=middle;whiteSpace=wrap;rounded=0;" vertex="1" parent="1">
          <mxGeometry x="240" y="480" width="320" height="30" as="geometry" />
        </mxCell>
      </root>
    </mxGraphModel>
  </diagram>
</mxfile>
